<svg class="rich-terminal" viewBox="0 0 872 635.5999999999999" xmlns="http://www.w3.org/2000/svg">
    <!-- Generated with Rich https://www.textualize.io -->
    <style>

    @font-face {
        font-family: "Fira Code";
        src: local("FiraCode-Regular"),
                url("https://cdnjs.cloudflare.com/ajax/libs/firacode/6.2.0/woff2/FiraCode-Regular.woff2") format("woff2"),
                url("https://cdnjs.cloudflare.com/ajax/libs/firacode/6.2.0/woff/FiraCode-Regular.woff") format("woff");
        font-style: normal;
        font-weight: 400;
    }
    @font-face {
        font-family: "Fira Code";
        src: local("FiraCode-Bold"),
                url("https://cdnjs.cloudflare.com/ajax/libs/firacode/6.2.0/woff2/FiraCode-Bold.woff2") format("woff2"),
                url("https://cdnjs.cloudflare.com/ajax/libs/firacode/6.2.0/woff/FiraCode-Bold.woff") format("woff");
        font-style: bold;
        font-weight: 700;
    }

    .terminal-matrix {
        font-family: Fira Code, monospace;
        font-size: 20px;
        line-height: 24.4px;
        font-variant-east-asian: full-width;
    }

    .terminal-title {
        font-size: 18px;
        font-weight: bold;
        font-family: arial;
    }

    .terminal-r1 { fill: #c5c8c6 }
.terminal-r2 { fill: #ff8205 }
.terminal-r3 { fill: #e0e0e0;font-weight: bold }
.terminal-r4 { fill: #a5a5a5;font-weight: bold }
.terminal-r5 { fill: #a5a5a5 }
.terminal-r6 { fill: #8d8d8d }
.terminal-r7 { fill: #0178d4;font-weight: bold }
.terminal-r8 { fill: #121212 }
.terminal-r9 { fill: #999999;font-weight: bold }
.terminal-r10 { fill: #000000 }
.terminal-r11 { fill: #e0e0e0 }
.terminal-r12 { fill: #999999 }
    </style>

    <defs>
    <clipPath id="terminal-clip-terminal">
      <rect x="0" y="0" width="853.0" height="584.5999999999999" />
    </clipPath>
    <clipPath id="terminal-line-0">
    <rect x="0" y="1.5" width="854" height="24.65"/>
            </clipPath>
<clipPath id="terminal-line-1">
    <rect x="0" y="25.9" width="854" height="24.65"/>
            </clipPath>
<clipPath id="terminal-line-2">
    <rect x="0" y="50.3" width="854" height="24.65"/>
            </clipPath>
<clipPath id="terminal-line-3">
    <rect x="0" y="74.7" width="854" height="24.65"/>
            </clipPath>
<clipPath id="terminal-line-4">
    <rect x="0" y="99.1" width="854" height="24.65"/>
            </clipPath>
<clipPath id="terminal-line-5">
    <rect x="0" y="123.5" width="854" height="24.65"/>
            </clipPath>
<clipPath id="terminal-line-6">
    <rect x="0" y="147.9" width="854" height="24.65"/>
            </clipPath>
<clipPath id="terminal-line-7">
    <rect x="0" y="172.3" width="854" height="24.65"/>
            </clipPath>
<clipPath id="terminal-line-8">
    <rect x="0" y="196.7" width="854" height="24.65"/>
            </clipPath>
<clipPath id="terminal-line-9">
    <rect x="0" y="221.1" width="854" height="24.65"/>
            </clipPath>
<clipPath id="terminal-line-10">
    <rect x="0" y="245.5" width="854" height="24.65"/>
            </clipPath>
<clipPath id="terminal-line-11">
    <rect x="0" y="269.9" width="854" height="24.65"/>
            </clipPath>
<clipPath id="terminal-line-12">
    <rect x="0" y="294.3" width="854" height="24.65"/>
            </clipPath>
<clipPath id="terminal-line-13">
    <rect x="0" y="318.7" width="854" height="24.65"/>
            </clipPath>
<clipPath id="terminal-line-14">
    <rect x="0" y="343.1" width="854" height="24.65"/>
            </clipPath>
<clipPath id="terminal-line-15">
    <rect x="0" y="367.5" width="854" height="24.65"/>
            </clipPath>
<clipPath id="terminal-line-16">
    <rect x="0" y="391.9" width="854" height="24.65"/>
            </clipPath>
<clipPath id="terminal-line-17">
    <rect x="0" y="416.3" width="854" height="24.65"/>
            </clipPath>
<clipPath id="terminal-line-18">
    <rect x="0" y="440.7" width="854" height="24.65"/>
            </clipPath>
<clipPath id="terminal-line-19">
    <rect x="0" y="465.1" width="854" height="24.65"/>
            </clipPath>
<clipPath id="terminal-line-20">
    <rect x="0" y="489.5" width="854" height="24.65"/>
            </clipPath>
<clipPath id="terminal-line-21">
    <rect x="0" y="513.9" width="854" height="24.65"/>
            </clipPath>
<clipPath id="terminal-line-22">
    <rect x="0" y="538.3" width="854" height="24.65"/>
            </clipPath>
    </defs>

    <rect fill="#292929" stroke="rgba(255,255,255,0.35)" stroke-width="1" x="1" y="1" width="870" height="633.6" rx="8"/><text class="terminal-title" fill="#c5c8c6" text-anchor="middle" x="435" y="27">WorkspaceHomeSnapshotApp</text>
            <g transform="translate(26,22)">
            <circle cx="0" cy="0" r="7" fill="#ff5f57"/>
            <circle cx="22" cy="0" r="7" fill="#febc2e"/>
            <circle cx="44" cy="0" r="7" fill="#28c840"/>
            </g>
        
    <g transform="translate(9, 41)" clip-path="url(#terminal-clip-terminal)">
    <rect fill="#1e1e1e" x="0" y="1.5" width="158.6" height="24.65" shape-rendering="crispEdges"/><rect fill="#1e1e1e" x="158.6" y="1.5" width="12.2" height="24.65" shape-rendering="crispEdges"/><rect fill="#121212" x="170.8" y="1.5" width="683.2" height="24.65" shape-rendering="crispEdges"/><rect fill="#463019" x="0" y="25.9" width="24.4" height="24.65" shape-rendering="crispEdges"/><rect fill="#463019" x="24.4" y="25.9" width="48.8" height="24.65" shape-rendering="crispEdges"/><rect fill="#463019" x="73.2" y="25.9" width="85.4" height="24.65" shape-rendering="crispEdges"/><rect fill="#1e1e1e" x="158.6" y="25.9" width="12.2" height="24.65" shape-rendering="crispEdges"/><rect fill="#121212" x="170.8" y="25.9" width="12.2" height="24.65" shape-rendering="crispEdges"/><rect fill="#121212" x="183" y="25.9" width="48.8" height="24.65" shape-rendering="crispEdges"/><rect fill="#121212" x="231.8" y="25.9" width="622.2" height="24.65" shape-rendering="crispEdges"/><rect fill="#1e1e1e" x="0" y="50.3" width="24.4" height="24.65" shape-rendering="crispEdges"/><rect fill="#1e1e1e" x="24.4" y="50.3" width="48.8" height="24.65" shape-rendering="crispEdges"/><rect fill="#1e1e1e" x="73.2" y="50.3" width="85.4" height="24.65" shape-rendering="crispEdges"/><rect fill="#1e1e1e" x="158.6" y="50.3" width="12.2" height="24.65" shape-rendering="crispEdges"/><rect fill="#121212" x="170.8" y="50.3" width="12.2" height="24.65" shape-rendering="crispEdges"/><rect fill="#121212" x="183" y="50.3" width="658.8" height="24.65" shape-rendering="crispEdges"/><rect fill="#121212" x="841.8" y="50.3" width="12.2" height="24.65" shape-rendering="crispEdges"/><rect fill="#1e1e1e" x="0" y="74.7" width="24.4" height="24.65" shape-rendering="crispEdges"/><rect fill="#1e1e1e" x="24.4" y="74.7" width="73.2" height="24.65" shape-rendering="crispEdges"/><rect fill="#1e1e1e" x="97.6" y="74.7" width="61" height="24.65" shape-rendering="crispEdges"/><rect fill="#1e1e1e" x="158.6" y="74.7" width="12.2" height="24.65" shape-rendering="crispEdges"/><rect fill="#121212" x="170.8" y="74.7" width="12.2" height="24.65" shape-rendering="crispEdges"/><rect fill="#121212" x="183" y="74.7" width="12.2" height="24.65" shape-rendering="crispEdges"/><rect fill="#121212" x="195.2" y="74.7" width="12.2" height="24.65" shape-rendering="crispEdges"/><rect fill="#121212" x="207.4" y="74.7" width="97.6" height="24.65" shape-rendering="crispEdges"/><rect fill="#121212" x="305" y="74.7" width="97.6" height="24.65" shape-rendering="crispEdges"/><rect fill="#121212" x="402.6" y="74.7" width="12.2" height="24.65" shape-rendering="crispEdges"/><rect fill="#121212" x="414.8" y="74.7" width="12.2" height="24.65" shape-rendering="crispEdges"/><rect fill="#121212" x="427" y="74.7" width="158.6" height="24.65" shape-rendering="crispEdges"/><rect fill="#121212" x="585.6" y="74.7" width="36.6" height="24.65" shape-rendering="crispEdges"/><rect fill="#121212" x="622.2" y="74.7" width="12.2" height="24.65" shape-rendering="crispEdges"/><rect fill="#121212" x="634.4" y="74.7" width="12.2" height="24.65" shape-rendering="crispEdges"/><rect fill="#121212" x="646.6" y="74.7" width="73.2" height="24.65" shape-rendering="crispEdges"/><rect fill="#121212" x="719.8" y="74.7" width="134.2" height="24.65" shape-rendering="crispEdges"/><rect fill="#1e1e1e" x="0" y="99.1" width="24.4" height="24.65" shape-rendering="crispEdges"/><rect fill="#1e1e1e" x="24.4" y="99.1" width="73.2" height="24.65" shape-rendering="crispEdges"/><rect fill="#1e1e1e" x="97.6" y="99.1" width="61" height="24.65" shape-rendering="crispEdges"/><rect fill="#1e1e1e" x="158.6" y="99.1" width="12.2" height="24.65" shape-rendering="crispEdges"/><rect fill="#121212" x="170.8" y="99.1" width="12.2" height="24.65" shape-rendering="crispEdges"/><rect fill="#121212" x="183" y="99.1" width="12.2" height="24.65" shape-rendering="crispEdges"/><rect fill="#121212" x="195.2" y="99.1" width="12.2" height="24.65" shape-rendering="crispEdges"/><rect fill="#121212" x="207.4" y="99.1" width="109.8" height="24.65" shape-rendering="crispEdges"/><rect fill="#121212" x="317.2" y="99.1" width="85.4" height="24.65" shape-rendering="crispEdges"/><rect fill="#121212" x="402.6" y="99.1" width="12.2" height="24.65" shape-rendering="crispEdges"/><rect fill="#121212" x="414.8" y="99.1" width="12.2" height="24.65" shape-rendering="crispEdges"/><rect fill="#30191f" x="427" y="99.1" width="170.8" height="24.65" shape-rendering="crispEdges"/><rect fill="#30191f" x="597.8" y="99.1" width="12.2" height="24.65" shape-rendering="crispEdges"/><rect fill="#003054" x="610" y="99.1" width="12.2" height="24.65" shape-rendering="crispEdges"/><rect fill="#121212" x="622.2" y="99.1" width="12.2" height="24.65" shape-rendering="crispEdges"/><rect fill="#121212" x="634.4" y="99.1" width="12.2" height="24.65" shape-rendering="crispEdges"/><rect fill="#121212" x="646.6" y="99.1" width="85.4" height="24.65" shape-rendering="crispEdges"/><rect fill="#121212" x="732" y="99.1" width="122" height="24.65" shape-rendering="crispEdges"/><rect fill="#1e1e1e" x="0" y="123.5" width="24.4" height="24.65" shape-rendering="crispEdges"/><rect fill="#1e1e1e" x="24.4" y="123.5" width="36.6" height="24.65" shape-rendering="crispEdges"/><rect fill="#1e1e1e" x="61" y="123.5" width="97.6" height="24.65" shape-rendering="crispEdges"/><rect fill="#1e1e1e" x="158.6" y="123.5" width="12.2" height="24.65" shape-rendering="crispEdges"/><rect fill="#121212" x="170.8" y="123.5" width="12.2" height="24.65" shape-rendering="crispEdges"/><rect fill="#121212" x="183" y="123.5" width="12.2" height="24.65" shape-rendering="crispEdges"/><rect fill="#121212" x="195.2" y="123.5" width="12.2" height="24.65" shape-rendering="crispEdges"/><rect fill="#121212" x="207.4" y="123.5" width="122" height="24.65" shape-rendering="crispEdges"/><rect fill="#121212" x="329.4" y="123.5" width="73.2" height="24.65" shape-rendering="crispEdges"/><rect fill="#121212" x="402.6" y="123.5" width="12.2" height="24.65" shape-rendering="crispEdges"/><rect fill="#121212" x="414.8" y="123.5" width="12.2" height="24.65" shape-rendering="crispEdges"/><rect fill="#121212" x="427" y="123.5" width="170.8" height="24.65" shape-rendering="crispEdges"/><rect fill="#121212" x="597.8" y="123.5" width="12.2" height="24.65" shape-rendering="crispEdges"/><rect fill="#003054" x="610" y="123.5" width="12.2" height="24.65" shape-rendering="crispEdges"/><rect fill="#121212" x="622.2" y="123.5" width="12.2" height="24.65" shape-rendering="crispEdges"/><rect fill="#121212" x="634.4" y="123.5" width="12.2" height="24.65" shape-rendering="crispEdges"/><rect fill="#121212" x="646.6" y="123.5" width="158.6" height="24.65" shape-rendering="crispEdges"/><rect fill="#121212" x="805.2" y="123.5" width="48.8" height="24.65" shape-rendering="crispEdges"/><rect fill="#1e1e1e" x="0" y="147.9" width="24.4" height="24.65" shape-rendering="crispEdges"/><rect fill="#1e1e1e" x="24.4" y="147.9" width="61" height="24.65" shape-rendering="crispEdges"/><rect fill="#1e1e1e" x="85.4" y="147.9" width="73.2" height="24.65" shape-rendering="crispEdges"/><rect fill="#1e1e1e" x="158.6" y="147.9" width="12.2" height="24.65" shape-rendering="crispEdges"/><rect fill="#121212" x="170.8" y="147.9" width="12.2" height="24.65" shape-rendering="crispEdges"/><rect fill="#121212" x="183" y="147.9" width="12.2" height="24.65" shape-rendering="crispEdges"/><rect fill="#121212" x="195.2" y="147.9" width="12.2" height="24.65" shape-rendering="crispEdges"/><rect fill="#121212" x="207.4" y="147.9" width="158.6" height="24.65" shape-rendering="crispEdges"/><rect fill="#121212" x="366" y="147.9" width="36.6" height="24.65" shape-rendering="crispEdges"/><rect fill="#121212" x="402.6" y="147.9" width="12.2" height="24.65" shape-rendering="crispEdges"/><rect fill="#121212" x="414.8" y="147.9" width="12.2" height="24.65" shape-rendering="crispEdges"/><rect fill="#121212" x="427" y="147.9" width="170.8" height="24.65" shape-rendering="crispEdges"/><rect fill="#121212" x="597.8" y="147.9" width="12.2" height="24.65" shape-rendering="crispEdges"/><rect fill="#003054" x="610" y="147.9" width="12.2" height="24.65" shape-rendering="crispEdges"/><rect fill="#121212" x="622.2" y="147.9" width="12.2" height="24.65" shape-rendering="crispEdges"/><rect fill="#121212" x="634.4" y="147.9" width="12.2" height="24.65" shape-rendering="crispEdges"/><rect fill="#121212" x="646.6" y="147.9" width="109.8" height="24.65" shape-rendering="crispEdges"/><rect fill="#121212" x="756.4" y="147.9" width="97.6" height="24.65" shape-rendering="crispEdges"/><rect fill="#1e1e1e" x="0" y="172.3" width="158.6" height="24.65" shape-rendering="crispEdges"/><rect fill="#1e1e1e" x="158.6" y="172.3" width="12.2" height="24.65" shape-rendering="crispEdges"/><rect fill="#121212" x="170.8" y="172.3" width="12.2" height="24.65" shape-rendering="crispEdges"/><rect fill="#121212" x="183" y="172.3" width="12.2" height="24.65" shape-rendering="crispEdges"/><rect fill="#121212" x="195.2" y="172.3" width="12.2" height="24.65" shape-rendering="crispEdges"/><rect fill="#121212" x="207.4" y="172.3" width="183" height="24.65" shape-rendering="crispEdges"/><rect fill="#121212" x="390.4" y="172.3" width="12.2" height="24.65" shape-rendering="crispEdges"/><rect fill="#121212" x="402.6" y="172.3" width="12.2" height="24.65" shape-rendering="crispEdges"/><rect fill="#121212" x="414.8" y="172.3" width="12.2" height="24.65" shape-rendering="crispEdges"/><rect fill="#121212" x="427" y="172.3" width="170.8" height="24.65" shape-rendering="crispEdges"/><rect fill="#121212" x="597.8" y="172.3" width="12.2" height="24.65" shape-rendering="crispEdges"/><rect fill="#000000" x="610" y="172.3" width="12.2" height="24.65" shape-rendering="crispEdges"/><rect fill="#121212" x="622.2" y="172.3" width="12.2" height="24.65" shape-rendering="crispEdges"/><rect fill="#121212" x="634.4" y="172.3" width="219.6" height="24.65" shape-rendering="crispEdges"/><rect fill="#1e1e1e" x="0" y="196.7" width="158.6" height="24.65" shape-rendering="crispEdges"/><rect fill="#1e1e1e" x="158.6" y="196.7" width="12.2" height="24.65" shape-rendering="crispEdges"/><rect fill="#121212" x="170.8" y="196.7" width="683.2" height="24.65" shape-rendering="crispEdges"/><rect fill="#1e1e1e" x="0" y="221.1" width="158.6" height="24.65" shape-rendering="crispEdges"/><rect fill="#1e1e1e" x="158.6" y="221.1" width="12.2" height="24.65" shape-rendering="crispEdges"/><rect fill="#121212" x="170.8" y="221.1" width="12.2" height="24.65" shape-rendering="crispEdges"/><rect fill="#121212" x="183" y="221.1" width="183" height="24.65" shape-rendering="crispEdges"/><rect fill="#121212" x="366" y="221.1" width="488" height="24.65" shape-rendering="crispEdges"/><rect fill="#1e1e1e" x="0" y="245.5" width="158.6" height="24.65" shape-rendering="crispEdges"/><rect fill="#1e1e1e" x="158.6" y="245.5" width="12.2" height="24.65" shape-rendering="crispEdges"/><rect fill="#121212" x="170.8" y="245.5" width="683.2" height="24.65" shape-rendering="crispEdges"/><rect fill="#1e1e1e" x="0" y="269.9" width="158.6" height="24.65" shape-rendering="crispEdges"/><rect fill="#1e1e1e" x="158.6" y="269.9" width="12.2" height="24.65" shape-rendering="crispEdges"/><rect fill="#121212" x="170.8" y="269.9" width="12.2" height="24.65" shape-rendering="crispEdges"/><rect fill="#121212" x="183" y="269.9" width="134.2" height="24.65" shape-rendering="crispEdges"/><rect fill="#121212" x="317.2" y="269.9" width="109.8" height="24.65" shape-rendering="crispEdges"/><rect fill="#121212" x="427" y="269.9" width="414.8" height="24.65" shape-rendering="crispEdges"/><rect fill="#121212" x="841.8" y="269.9" width="12.2" height="24.65" shape-rendering="crispEdges"/><rect fill="#1e1e1e" x="0" y="294.3" width="158.6" height="24.65" shape-rendering="crispEdges"/><rect fill="#1e1e1e" x="158.6" y="294.3" width="12.2" height="24.65" shape-rendering="crispEdges"/><rect fill="#121212" x="170.8" y="294.3" width="12.2" height="24.65" shape-rendering="crispEdges"/><rect fill="#121212" x="183" y="294.3" width="134.2" height="24.65" shape-rendering="crispEdges"/><rect fill="#121212" x="317.2" y="294.3" width="109.8" height="24.65" shape-rendering="crispEdges"/><rect fill="#121212" x="427" y="294.3" width="414.8" height="24.65" shape-rendering="crispEdges"/><rect fill="#121212" x="841.8" y="294.3" width="12.2" height="24.65" shape-rendering="crispEdges"/><rect fill="#1e1e1e" x="0" y="318.7" width="158.6" height="24.65" shape-rendering="crispEdges"/><rect fill="#1e1e1e" x="158.6" y="318.7" width="12.2" height="24.65" shape-rendering="crispEdges"/><rect fill="#121212" x="170.8" y="318.7" width="12.2" height="24.65" shape-rendering="crispEdges"/><rect fill="#121212" x="183" y="318.7" width="134.2" height="24.65" shape-rendering="crispEdges"/><rect fill="#121212" x="317.2" y="318.7" width="109.8" height="24.65" shape-rendering="crispEdges"/><rect fill="#121212" x="427" y="318.7" width="414.8" height="24.65" shape-rendering="crispEdges"/><rect fill="#121212" x="841.8" y="318.7" width="12.2" height="24.65" shape-rendering="crispEdges"/><rect fill="#1e1e1e" x="0" y="343.1" width="158.6" height="24.65" shape-rendering="crispEdges"/><rect fill="#1e1e1e" x="158.6" y="343.1" width="12.2" height="24.65" shape-rendering="crispEdges"/><rect fill="#121212" x="170.8" y="343.1" width="12.2" height="24.65" shape-rendering="crispEdges"/><rect fill="#121212" x="183" y="343.1" width="134.2" height="24.65" shape-rendering="crispEdges"/><rect fill="#121212" x="317.2" y="343.1" width="109.8" height="24.65" shape-rendering="crispEdges"/><rect fill="#121212" x="427" y="343.1" width="414.8" height="24.65" shape-rendering="crispEdges"/><rect fill="#121212" x="841.8" y="343.1" width="12.2" height="24.65" shape-rendering="crispEdges"/><rect fill="#1e1e1e" x="0" y="367.5" width="158.6" height="24.65" shape-rendering="crispEdges"/><rect fill="#1e1e1e" x="158.6" y="367.5" width="12.2" height="24.65" shape-rendering="crispEdges"/><rect fill="#121212" x="170.8" y="367.5" width="12.2" height="24.65" shape-rendering="crispEdges"/><rect fill="#121212" x="183" y="367.5" width="134.2" height="24.65" shape-rendering="crispEdges"/><rect fill="#121212" x="317.2" y="367.5" width="109.8" height="24.65" shape-rendering="crispEdges"/><rect fill="#121212" x="427" y="367.5" width="414.8" height="24.65" shape-rendering="crispEdges"/><rect fill="#121212" x="841.8" y="367.5" width="12.2" height="24.65" shape-rendering="crispEdges"/><rect fill="#1e1e1e" x="0" y="391.9" width="158.6" height="24.65" shape-rendering="crispEdges"/><rect fill="#1e1e1e" x="158.6" y="391.9" width="12.2" height="24.65" shape-rendering="crispEdges"/><rect fill="#121212" x="170.8" y="391.9" width="12.2" height="24.65" shape-rendering="crispEdges"/><rect fill="#121212" x="183" y="391.9" width="134.2" height="24.65" shape-rendering="crispEdges"/><rect fill="#121212" x="317.2" y="391.9" width="109.8" height="24.65" shape-rendering="crispEdges"/><rect fill="#121212" x="427" y="391.9" width="414.8" height="24.65" shape-rendering="crispEdges"/><rect fill="#121212" x="841.8" y="391.9" width="12.2" height="24.65" shape-rendering="crispEdges"/><rect fill="#1e1e1e" x="0" y="416.3" width="158.6" height="24.65" shape-rendering="crispEdges"/><rect fill="#1e1e1e" x="158.6" y="416.3" width="12.2" height="24.65" shape-rendering="crispEdges"/><rect fill="#121212" x="170.8" y="416.3" width="12.2" height="24.65" shape-rendering="crispEdges"/><rect fill="#121212" x="183" y="416.3" width="134.2" height="24.65" shape-rendering="crispEdges"/><rect fill="#121212" x="317.2" y="416.3" width="109.8" height="24.65" shape-rendering="crispEdges"/><rect fill="#121212" x="427" y="416.3" width="414.8" height="24.65" shape-rendering="crispEdges"/><rect fill="#121212" x="841.8" y="416.3" width="12.2" height="24.65" shape-rendering="crispEdges"/><rect fill="#1e1e1e" x="0" y="440.7" width="158.6" height="24.65" shape-rendering="crispEdges"/><rect fill="#1e1e1e" x="158.6" y="440.7" width="12.2" height="24.65" shape-rendering="crispEdges"/><rect fill="#121212" x="170.8" y="440.7" width="12.2" height="24.65" shape-rendering="crispEdges"/><rect fill="#121212" x="183" y="440.7" width="134.2" height="24.65" shape-rendering="crispEdges"/><rect fill="#121212" x="317.2" y="440.7" width="109.8" height="24.65" shape-rendering="crispEdges"/><rect fill="#121212" x="427" y="440.7" width="414.8" height="24.65" shape-rendering="crispEdges"/><rect fill="#121212" x="841.8" y="440.7" width="12.2" height="24.65" shape-rendering="crispEdges"/><rect fill="#1e1e1e" x="0" y="465.1" width="158.6" height="24.65" shape-rendering="crispEdges"/><rect fill="#1e1e1e" x="158.6" y="465.1" width="12.2" height="24.65" shape-rendering="crispEdges"/><rect fill="#121212" x="170.8" y="465.1" width="12.2" height="24.65" shape-rendering="crispEdges"/><rect fill="#121212" x="183" y="465.1" width="658.8" height="24.65" shape-rendering="crispEdges"/><rect fill="#121212" x="841.8" y="465.1" width="12.2" height="24.65" shape-rendering="crispEdges"/><rect fill="#1e1e1e" x="0" y="489.5" width="158.6" height="24.65" shape-rendering="crispEdges"/><rect fill="#1e1e1e" x="158.6" y="489.5" width="12.2" height="24.65" shape-rendering="crispEdges"/><rect fill="#121212" x="170.8" y="489.5" width="12.2" height="24.65" shape-rendering="crispEdges"/><rect fill="#121212" x="183" y="489.5" width="658.8" height="24.65" shape-rendering="crispEdges"/><rect fill="#121212" x="841.8" y="489.5" width="12.2" height="24.65" shape-rendering="crispEdges"/><rect fill="#1e1e1e" x="0" y="513.9" width="158.6" height="24.65" shape-rendering="crispEdges"/><rect fill="#1e1e1e" x="158.6" y="513.9" width="12.2" height="24.65" shape-rendering="crispEdges"/><rect fill="#121212" x="170.8" y="513.9" width="12.2" height="24.65" shape-rendering="crispEdges"/><rect fill="#121212" x="183" y="513.9" width="658.8" height="24.65" shape-rendering="crispEdges"/><rect fill="#121212" x="841.8" y="513.9" width="12.2" height="24.65" shape-rendering="crispEdges"/><rect fill="#1e1e1e" x="0" y="538.3" width="158.6" height="24.65" shape-rendering="crispEdges"/><rect fill="#1e1e1e" x="158.6" y="538.3" width="12.2" height="24.65" shape-rendering="crispEdges"/><rect fill="#121212" x="170.8" y="538.3" width="12.2" height="24.65" shape-rendering="crispEdges"/><rect fill="#121212" x="183" y="538.3" width="658.8" height="24.65" shape-rendering="crispEdges"/><rect fill="#121212" x="841.8" y="538.3" width="12.2" height="24.65" shape-rendering="crispEdges"/><rect fill="#1e1e1e" x="0" y="562.7" width="158.6" height="24.65" shape-rendering="crispEdges"/><rect fill="#1e1e1e" x="158.6" y="562.7" width="12.2" height="24.65" shape-rendering="crispEdges"/><rect fill="#121212" x="170.8" y="562.7" width="683.2" height="24.65" shape-rendering="crispEdges"/>
    <g class="terminal-matrix">
    <text class="terminal-r2" x="158.6" y="20" textLength="12.2" clip-path="url(#terminal-line-0)">│</text><text class="terminal-r1" x="854" y="20" textLength="12.2" clip-path="url(#terminal-line-0)">
</text><text class="terminal-r3" x="0" y="44.4" textLength="24.4" clip-path="url(#terminal-line-1)">⌂&#160;</text><text class="terminal-r3" x="24.4" y="44.4" textLength="48.8" clip-path="url(#terminal-line-1)">Home</text><text class="terminal-r2" x="158.6" y="44.4" textLength="12.2" clip-path="url(#terminal-line-1)">│</text><text class="terminal-r3" x="183" y="44.4" textLength="48.8" clip-path="url(#terminal-line-1)">Home</text><text class="terminal-r1" x="854" y="44.4" textLength="12.2" clip-path="url(#terminal-line-1)">
</text><text class="terminal-r4" x="0" y="68.8" textLength="24.4" clip-path="url(#terminal-line-2)">◆&#160;</text><text class="terminal-r5" x="24.4" y="68.8" textLength="48.8" clip-path="url(#terminal-line-2)">Chat</text><text class="terminal-r2" x="158.6" y="68.8" textLength="12.2" clip-path="url(#terminal-line-2)">│</text><text class="terminal-r1" x="854" y="68.8" textLength="12.2" clip-path="url(#terminal-line-2)">
</text><text class="terminal-r4" x="0" y="93.2" textLength="24.4" clip-path="url(#terminal-line-3)">▦&#160;</text><text class="terminal-r5" x="24.4" y="93.2" textLength="73.2" clip-path="url(#terminal-line-3)">Office</text><text class="terminal-r2" x="158.6" y="93.2" textLength="12.2" clip-path="url(#terminal-line-3)">│</text><text class="terminal-r6" x="183" y="93.2" textLength="12.2" clip-path="url(#terminal-line-3)">│</text><text class="terminal-r7" x="207.4" y="93.2" textLength="97.6" clip-path="url(#terminal-line-3)">OVERVIEW</text><text class="terminal-r6" x="402.6" y="93.2" textLength="12.2" clip-path="url(#terminal-line-3)">│</text><text class="terminal-r7" x="427" y="93.2" textLength="158.6" clip-path="url(#terminal-line-3)">ACTION&#160;NEEDED</text><text class="terminal-r6" x="622.2" y="93.2" textLength="12.2" clip-path="url(#terminal-line-3)">│</text><text class="terminal-r7" x="646.6" y="93.2" textLength="73.2" clip-path="url(#terminal-line-3)">SYSTEM</text><text class="terminal-r1" x="854" y="93.2" textLength="12.2" clip-path="url(#terminal-line-3)">
</text><text class="terminal-r4" x="0" y="117.6" textLength="24.4" clip-path="url(#terminal-line-4)">◎&#160;</text><text class="terminal-r5" x="24.4" y="117.6" textLength="73.2" clip-path="url(#terminal-line-4)">Agents</text><text class="terminal-r2" x="158.6" y="117.6" textLength="12.2" clip-path="url(#terminal-line-4)">│</text><text class="terminal-r6" x="183" y="117.6" textLength="12.2" clip-path="url(#terminal-line-4)">│</text><text class="terminal-r3" x="207.4" y="117.6" textLength="109.8" clip-path="url(#terminal-line-4)">10&#160;agents</text><text class="terminal-r6" x="402.6" y="117.6" textLength="12.2" clip-path="url(#terminal-line-4)">│</text><text class="terminal-r3" x="427" y="117.6" textLength="170.8" clip-path="url(#terminal-line-4)">!&#160;1&#160;Attention&#160;</text><text class="terminal-r3" x="597.8" y="117.6" textLength="12.2" clip-path="url(#terminal-line-4)">…</text><text class="terminal-r6" x="622.2" y="117.6" textLength="12.2" clip-path="url(#terminal-line-4)">│</text><text class="terminal-r3" x="646.6" y="117.6" textLength="85.4" clip-path="url(#terminal-line-4)">✓&#160;Ready</text><text class="terminal-r1" x="854" y="117.6" textLength="12.2" clip-path="url(#terminal-line-4)">
</text><text class="terminal-r4" x="0" y="142" textLength="24.4" clip-path="url(#terminal-line-5)">◇&#160;</text><text class="terminal-r5" x="24.4" y="142" textLength="36.6" clip-path="url(#terminal-line-5)">MCP</text><text class="terminal-r2" x="158.6" y="142" textLength="12.2" clip-path="url(#terminal-line-5)">│</text><text class="terminal-r6" x="183" y="142" textLength="12.2" clip-path="url(#terminal-line-5)">│</text><text class="terminal-r3" x="207.4" y="142" textLength="122" clip-path="url(#terminal-line-5)">●&#160;8&#160;active</text><text class="terminal-r6" x="402.6" y="142" textLength="12.2" clip-path="url(#terminal-line-5)">│</text><text class="terminal-r3" x="427" y="142" textLength="170.8" clip-path="url(#terminal-line-5)">!&#160;2&#160;Attention&#160;</text><text class="terminal-r3" x="597.8" y="142" textLength="12.2" clip-path="url(#terminal-line-5)">…</text><text class="terminal-r6" x="622.2" y="142" textLength="12.2" clip-path="url(#terminal-line-5)">│</text><text class="terminal-r9" x="646.6" y="142" textLength="158.6" clip-path="url(#terminal-line-5)">3&#160;MCP&#160;sources</text><text class="terminal-r1" x="854" y="142" textLength="12.2" clip-path="url(#terminal-line-5)">
</text><text class="terminal-r4" x="0" y="166.4" textLength="24.4" clip-path="url(#terminal-line-6)">▥&#160;</text><text class="terminal-r5" x="24.4" y="166.4" textLength="61" clip-path="url(#terminal-line-6)">Usage</text><text class="terminal-r2" x="158.6" y="166.4" textLength="12.2" clip-path="url(#terminal-line-6)">│</text><text class="terminal-r6" x="183" y="166.4" textLength="12.2" clip-path="url(#terminal-line-6)">│</text><text class="terminal-r3" x="207.4" y="166.4" textLength="158.6" clip-path="url(#terminal-line-6)">!&#160;7&#160;attention</text><text class="terminal-r6" x="402.6" y="166.4" textLength="12.2" clip-path="url(#terminal-line-6)">│</text><text class="terminal-r3" x="427" y="166.4" textLength="170.8" clip-path="url(#terminal-line-6)">!&#160;3&#160;Attention&#160;</text><text class="terminal-r3" x="597.8" y="166.4" textLength="12.2" clip-path="url(#terminal-line-6)">…</text><text class="terminal-r10" x="610" y="166.4" textLength="12.2" clip-path="url(#terminal-line-6)">▅</text><text class="terminal-r6" x="622.2" y="166.4" textLength="12.2" clip-path="url(#terminal-line-6)">│</text><text class="terminal-r9" x="646.6" y="166.4" textLength="109.8" clip-path="url(#terminal-line-6)">connected</text><text class="terminal-r1" x="854" y="166.4" textLength="12.2" clip-path="url(#terminal-line-6)">
</text><text class="terminal-r2" x="158.6" y="190.8" textLength="12.2" clip-path="url(#terminal-line-7)">│</text><text class="terminal-r6" x="183" y="190.8" textLength="12.2" clip-path="url(#terminal-line-7)">│</text><text class="terminal-r3" x="207.4" y="190.8" textLength="183" clip-path="url(#terminal-line-7)">×&#160;1&#160;recent&#160;fail</text><text class="terminal-r6" x="402.6" y="190.8" textLength="12.2" clip-path="url(#terminal-line-7)">│</text><text class="terminal-r3" x="427" y="190.8" textLength="170.8" clip-path="url(#terminal-line-7)">!&#160;4&#160;Attention&#160;</text><text class="terminal-r3" x="597.8" y="190.8" textLength="12.2" clip-path="url(#terminal-line-7)">…</text><text class="terminal-r6" x="622.2" y="190.8" textLength="12.2" clip-path="url(#terminal-line-7)">│</text><text class="terminal-r1" x="854" y="190.8" textLength="12.2" clip-path="url(#terminal-line-7)">
</text><text class="terminal-r2" x="158.6" y="215.2" textLength="12.2" clip-path="url(#terminal-line-8)">│</text><text class="terminal-r1" x="854" y="215.2" textLength="12.2" clip-path="url(#terminal-line-8)">
</text><text class="terminal-r2" x="158.6" y="239.6" textLength="12.2" clip-path="url(#terminal-line-9)">│</text><text class="terminal-r7" x="183" y="239.6" textLength="183" clip-path="url(#terminal-line-9)">RECENT&#160;ACTIVITY</text><text class="terminal-r1" x="854" y="239.6" textLength="12.2" clip-path="url(#terminal-line-9)">
</text><text class="terminal-r2" x="158.6" y="264" textLength="12.2" clip-path="url(#terminal-line-10)">│</text><text class="terminal-r1" x="854" y="264" textLength="12.2" clip-path="url(#terminal-line-10)">
</text><text class="terminal-r2" x="158.6" y="288.4" textLength="12.2" clip-path="url(#terminal-line-11)">│</text><text class="terminal-r3" x="183" y="288.4" textLength="134.2" clip-path="url(#terminal-line-11)">✓&#160;finished&#160;</text><text class="terminal-r3" x="317.2" y="288.4" textLength="109.8" clip-path="url(#terminal-line-11)">Explore&#160;9</text><text class="terminal-r12" x="427" y="288.4" textLength="414.8" clip-path="url(#terminal-line-11)">&#160;&#160;Waiting&#160;for&#160;approval&#160;on&#160;respons…</text><text class="terminal-r1" x="854" y="288.4" textLength="12.2" clip-path="url(#terminal-line-11)">
</text><text class="terminal-r2" x="158.6" y="312.8" textLength="12.2" clip-path="url(#terminal-line-12)">│</text><text class="terminal-r3" x="183" y="312.8" textLength="134.2" clip-path="url(#terminal-line-12)">●&#160;working&#160;&#160;</text><text class="terminal-r3" x="317.2" y="312.8" textLength="109.8" clip-path="url(#terminal-line-12)">Explore&#160;8</text><text class="terminal-r12" x="427" y="312.8" textLength="414.8" clip-path="url(#terminal-line-12)">&#160;&#160;Waiting&#160;for&#160;approval&#160;on&#160;respons…</text><text class="terminal-r1" x="854" y="312.8" textLength="12.2" clip-path="url(#terminal-line-12)">
</text><text class="terminal-r2" x="158.6" y="337.2" textLength="12.2" clip-path="url(#terminal-line-13)">│</text><text class="terminal-r3" x="183" y="337.2" textLength="134.2" clip-path="url(#terminal-line-13)">×&#160;failed&#160;&#160;&#160;</text><text class="terminal-r3" x="317.2" y="337.2" textLength="109.8" clip-path="url(#terminal-line-13)">Explore&#160;7</text><text class="terminal-r12" x="427" y="337.2" textLength="414.8" clip-path="url(#terminal-line-13)">&#160;&#160;Waiting&#160;for&#160;approval&#160;on&#160;respons…</text><text class="terminal-r1" x="854" y="337.2" textLength="12.2" clip-path="url(#terminal-line-13)">
</text><text class="terminal-r2" x="158.6" y="361.6" textLength="12.2" clip-path="url(#terminal-line-14)">│</text><text class="terminal-r3" x="183" y="361.6" textLength="134.2" clip-path="url(#terminal-line-14)">!&#160;attention</text><text class="terminal-r3" x="317.2" y="361.6" textLength="109.8" clip-path="url(#terminal-line-14)">Explore&#160;6</text><text class="terminal-r12" x="427" y="361.6" textLength="414.8" clip-path="url(#terminal-line-14)">&#160;&#160;Waiting&#160;for&#160;approval&#160;on&#160;respons…</text><text class="terminal-r1" x="854" y="361.6" textLength="12.2" clip-path="url(#terminal-line-14)">
</text><text class="terminal-r2" x="158.6" y="386" textLength="12.2" clip-path="url(#terminal-line-15)">│</text><text class="terminal-r3" x="183" y="386" textLength="134.2" clip-path="url(#terminal-line-15)">!&#160;attention</text><text class="terminal-r3" x="317.2" y="386" textLength="109.8" clip-path="url(#terminal-line-15)">Explore&#160;5</text><text class="terminal-r12" x="427" y="386" textLength="414.8" clip-path="url(#terminal-line-15)">&#160;&#160;Waiting&#160;for&#160;approval&#160;on&#160;respons…</text><text class="terminal-r1" x="854" y="386" textLength="12.2" clip-path="url(#terminal-line-15)">
</text><text class="terminal-r2" x="158.6" y="410.4" textLength="12.2" clip-path="url(#terminal-line-16)">│</text><text class="terminal-r3" x="183" y="410.4" textLength="134.2" clip-path="url(#terminal-line-16)">!&#160;attention</text><text class="terminal-r3" x="317.2" y="410.4" textLength="109.8" clip-path="url(#terminal-line-16)">Explore&#160;4</text><text class="terminal-r12" x="427" y="410.4" textLength="414.8" clip-path="url(#terminal-line-16)">&#160;&#160;Waiting&#160;for&#160;approval&#160;on&#160;respons…</text><text class="terminal-r1" x="854" y="410.4" textLength="12.2" clip-path="url(#terminal-line-16)">
</text><text class="terminal-r2" x="158.6" y="434.8" textLength="12.2" clip-path="url(#terminal-line-17)">│</text><text class="terminal-r3" x="183" y="434.8" textLength="134.2" clip-path="url(#terminal-line-17)">!&#160;attention</text><text class="terminal-r3" x="317.2" y="434.8" textLength="109.8" clip-path="url(#terminal-line-17)">Explore&#160;3</text><text class="terminal-r12" x="427" y="434.8" textLength="414.8" clip-path="url(#terminal-line-17)">&#160;&#160;Waiting&#160;for&#160;approval&#160;on&#160;respons…</text><text class="terminal-r1" x="854" y="434.8" textLength="12.2" clip-path="url(#terminal-line-17)">
</text><text class="terminal-r2" x="158.6" y="459.2" textLength="12.2" clip-path="url(#terminal-line-18)">│</text><text class="terminal-r3" x="183" y="459.2" textLength="134.2" clip-path="url(#terminal-line-18)">!&#160;attention</text><text class="terminal-r3" x="317.2" y="459.2" textLength="109.8" clip-path="url(#terminal-line-18)">Explore&#160;2</text><text class="terminal-r12" x="427" y="459.2" textLength="414.8" clip-path="url(#terminal-line-18)">&#160;&#160;Waiting&#160;for&#160;approval&#160;on&#160;respons…</text><text class="terminal-r1" x="854" y="459.2" textLength="12.2" clip-path="url(#terminal-line-18)">
</text><text class="terminal-r2" x="158.6" y="483.6" textLength="12.2" clip-path="url(#terminal-line-19)">│</text><text class="terminal-r1" x="854" y="483.6" textLength="12.2" clip-path="url(#terminal-line-19)">
</text><text class="terminal-r2" x="158.6" y="508" textLength="12.2" clip-path="url(#terminal-line-20)">│</text><text class="terminal-r1" x="854" y="508" textLength="12.2" clip-path="url(#terminal-line-20)">
</text><text class="terminal-r2" x="158.6" y="532.4" textLength="12.2" clip-path="url(#terminal-line-21)">│</text><text class="terminal-r1" x="854" y="532.4" textLength="12.2" clip-path="url(#terminal-line-21)">
</text><text class="terminal-r2" x="158.6" y="556.8" textLength="12.2" clip-path="url(#terminal-line-22)">│</text><text class="terminal-r1" x="854" y="556.8" textLength="12.2" clip-path="url(#terminal-line-22)">
</text><text class="terminal-r2" x="158.6" y="581.2" textLength="12.2" clip-path="url(#terminal-line-23)">│</text>
    </g>
    </g>
</svg>
