<svg class="rich-terminal" viewBox="0 0 1238 830.8" xmlns="http://www.w3.org/2000/svg">
    <!-- Generated with Rich https://www.textualize.io -->
    <style>

    @font-face {
        font-family: "Fira Code";
        src: local("FiraCode-Regular"),
                url("https://cdnjs.cloudflare.com/ajax/libs/firacode/6.2.0/woff2/FiraCode-Regular.woff2") format("woff2"),
                url("https://cdnjs.cloudflare.com/ajax/libs/firacode/6.2.0/woff/FiraCode-Regular.woff") format("woff");
        font-style: normal;
        font-weight: 400;
    }
    @font-face {
        font-family: "Fira Code";
        src: local("FiraCode-Bold"),
                url("https://cdnjs.cloudflare.com/ajax/libs/firacode/6.2.0/woff2/FiraCode-Bold.woff2") format("woff2"),
                url("https://cdnjs.cloudflare.com/ajax/libs/firacode/6.2.0/woff/FiraCode-Bold.woff") format("woff");
        font-style: bold;
        font-weight: 700;
    }

    .terminal-matrix {
        font-family: Fira Code, monospace;
        font-size: 20px;
        line-height: 24.4px;
        font-variant-east-asian: full-width;
    }

    .terminal-title {
        font-size: 18px;
        font-weight: bold;
        font-family: arial;
    }

    .terminal-r1 { fill: #c5c8c6 }
.terminal-r2 { fill: #ff8205 }
.terminal-r3 { fill: #1f1f1f;font-weight: bold }
.terminal-r4 { fill: #565656;font-weight: bold }
.terminal-r5 { fill: #565656 }
.terminal-r6 { fill: #6c6c6c }
.terminal-r7 { fill: #004578;font-weight: bold }
.terminal-r8 { fill: #e0e0e0 }
.terminal-r9 { fill: #606060;font-weight: bold }
.terminal-r10 { fill: #cacaca }
.terminal-r11 { fill: #1f1f1f }
.terminal-r12 { fill: #606060 }
    </style>

    <defs>
    <clipPath id="terminal-clip-terminal">
      <rect x="0" y="0" width="1219.0" height="779.8" />
    </clipPath>
    <clipPath id="terminal-line-0">
    <rect x="0" y="1.5" width="1220" height="24.65"/>
            </clipPath>
<clipPath id="terminal-line-1">
    <rect x="0" y="25.9" width="1220" height="24.65"/>
            </clipPath>
<clipPath id="terminal-line-2">
    <rect x="0" y="50.3" width="1220" height="24.65"/>
            </clipPath>
<clipPath id="terminal-line-3">
    <rect x="0" y="74.7" width="1220" height="24.65"/>
            </clipPath>
<clipPath id="terminal-line-4">
    <rect x="0" y="99.1" width="1220" height="24.65"/>
            </clipPath>
<clipPath id="terminal-line-5">
    <rect x="0" y="123.5" width="1220" height="24.65"/>
            </clipPath>
<clipPath id="terminal-line-6">
    <rect x="0" y="147.9" width="1220" height="24.65"/>
            </clipPath>
<clipPath id="terminal-line-7">
    <rect x="0" y="172.3" width="1220" height="24.65"/>
            </clipPath>
<clipPath id="terminal-line-8">
    <rect x="0" y="196.7" width="1220" height="24.65"/>
            </clipPath>
<clipPath id="terminal-line-9">
    <rect x="0" y="221.1" width="1220" height="24.65"/>
            </clipPath>
<clipPath id="terminal-line-10">
    <rect x="0" y="245.5" width="1220" height="24.65"/>
            </clipPath>
<clipPath id="terminal-line-11">
    <rect x="0" y="269.9" width="1220" height="24.65"/>
            </clipPath>
<clipPath id="terminal-line-12">
    <rect x="0" y="294.3" width="1220" height="24.65"/>
            </clipPath>
<clipPath id="terminal-line-13">
    <rect x="0" y="318.7" width="1220" height="24.65"/>
            </clipPath>
<clipPath id="terminal-line-14">
    <rect x="0" y="343.1" width="1220" height="24.65"/>
            </clipPath>
<clipPath id="terminal-line-15">
    <rect x="0" y="367.5" width="1220" height="24.65"/>
            </clipPath>
<clipPath id="terminal-line-16">
    <rect x="0" y="391.9" width="1220" height="24.65"/>
            </clipPath>
<clipPath id="terminal-line-17">
    <rect x="0" y="416.3" width="1220" height="24.65"/>
            </clipPath>
<clipPath id="terminal-line-18">
    <rect x="0" y="440.7" width="1220" height="24.65"/>
            </clipPath>
<clipPath id="terminal-line-19">
    <rect x="0" y="465.1" width="1220" height="24.65"/>
            </clipPath>
<clipPath id="terminal-line-20">
    <rect x="0" y="489.5" width="1220" height="24.65"/>
            </clipPath>
<clipPath id="terminal-line-21">
    <rect x="0" y="513.9" width="1220" height="24.65"/>
            </clipPath>
<clipPath id="terminal-line-22">
    <rect x="0" y="538.3" width="1220" height="24.65"/>
            </clipPath>
<clipPath id="terminal-line-23">
    <rect x="0" y="562.7" width="1220" height="24.65"/>
            </clipPath>
<clipPath id="terminal-line-24">
    <rect x="0" y="587.1" width="1220" height="24.65"/>
            </clipPath>
<clipPath id="terminal-line-25">
    <rect x="0" y="611.5" width="1220" height="24.65"/>
            </clipPath>
<clipPath id="terminal-line-26">
    <rect x="0" y="635.9" width="1220" height="24.65"/>
            </clipPath>
<clipPath id="terminal-line-27">
    <rect x="0" y="660.3" width="1220" height="24.65"/>
            </clipPath>
<clipPath id="terminal-line-28">
    <rect x="0" y="684.7" width="1220" height="24.65"/>
            </clipPath>
<clipPath id="terminal-line-29">
    <rect x="0" y="709.1" width="1220" height="24.65"/>
            </clipPath>
<clipPath id="terminal-line-30">
    <rect x="0" y="733.5" width="1220" height="24.65"/>
            </clipPath>
    </defs>

    <rect fill="#292929" stroke="rgba(255,255,255,0.35)" stroke-width="1" x="1" y="1" width="1236" height="828.8" rx="8"/><text class="terminal-title" fill="#c5c8c6" text-anchor="middle" x="618" y="27">WorkspaceHomeLightSnapshotApp</text>
            <g transform="translate(26,22)">
            <circle cx="0" cy="0" r="7" fill="#ff5f57"/>
            <circle cx="22" cy="0" r="7" fill="#febc2e"/>
            <circle cx="44" cy="0" r="7" fill="#28c840"/>
            </g>
        
    <g transform="translate(9, 41)" clip-path="url(#terminal-clip-terminal)">
    <rect fill="#d8d8d8" x="0" y="1.5" width="195.2" height="24.65" shape-rendering="crispEdges"/><rect fill="#d8d8d8" x="195.2" y="1.5" width="12.2" height="24.65" shape-rendering="crispEdges"/><rect fill="#e0e0e0" x="207.4" y="1.5" width="1012.6" height="24.65" shape-rendering="crispEdges"/><rect fill="#dfc8b2" x="0" y="25.9" width="24.4" height="24.65" shape-rendering="crispEdges"/><rect fill="#dfc8b2" x="24.4" y="25.9" width="48.8" height="24.65" shape-rendering="crispEdges"/><rect fill="#dfc8b2" x="73.2" y="25.9" width="122" height="24.65" shape-rendering="crispEdges"/><rect fill="#d8d8d8" x="195.2" y="25.9" width="12.2" height="24.65" shape-rendering="crispEdges"/><rect fill="#e0e0e0" x="207.4" y="25.9" width="24.4" height="24.65" shape-rendering="crispEdges"/><rect fill="#e0e0e0" x="231.8" y="25.9" width="48.8" height="24.65" shape-rendering="crispEdges"/><rect fill="#e0e0e0" x="280.6" y="25.9" width="939.4" height="24.65" shape-rendering="crispEdges"/><rect fill="#d8d8d8" x="0" y="50.3" width="24.4" height="24.65" shape-rendering="crispEdges"/><rect fill="#d8d8d8" x="24.4" y="50.3" width="48.8" height="24.65" shape-rendering="crispEdges"/><rect fill="#d8d8d8" x="73.2" y="50.3" width="122" height="24.65" shape-rendering="crispEdges"/><rect fill="#d8d8d8" x="195.2" y="50.3" width="12.2" height="24.65" shape-rendering="crispEdges"/><rect fill="#e0e0e0" x="207.4" y="50.3" width="24.4" height="24.65" shape-rendering="crispEdges"/><rect fill="#e0e0e0" x="231.8" y="50.3" width="963.8" height="24.65" shape-rendering="crispEdges"/><rect fill="#e0e0e0" x="1195.6" y="50.3" width="24.4" height="24.65" shape-rendering="crispEdges"/><rect fill="#d8d8d8" x="0" y="74.7" width="24.4" height="24.65" shape-rendering="crispEdges"/><rect fill="#d8d8d8" x="24.4" y="74.7" width="73.2" height="24.65" shape-rendering="crispEdges"/><rect fill="#d8d8d8" x="97.6" y="74.7" width="97.6" height="24.65" shape-rendering="crispEdges"/><rect fill="#d8d8d8" x="195.2" y="74.7" width="12.2" height="24.65" shape-rendering="crispEdges"/><rect fill="#e0e0e0" x="207.4" y="74.7" width="24.4" height="24.65" shape-rendering="crispEdges"/><rect fill="#e0e0e0" x="231.8" y="74.7" width="12.2" height="24.65" shape-rendering="crispEdges"/><rect fill="#e0e0e0" x="244" y="74.7" width="12.2" height="24.65" shape-rendering="crispEdges"/><rect fill="#e0e0e0" x="256.2" y="74.7" width="97.6" height="24.65" shape-rendering="crispEdges"/><rect fill="#e0e0e0" x="353.8" y="74.7" width="195.2" height="24.65" shape-rendering="crispEdges"/><rect fill="#e0e0e0" x="549" y="74.7" width="12.2" height="24.65" shape-rendering="crispEdges"/><rect fill="#e0e0e0" x="561.2" y="74.7" width="12.2" height="24.65" shape-rendering="crispEdges"/><rect fill="#e0e0e0" x="573.4" y="74.7" width="158.6" height="24.65" shape-rendering="crispEdges"/><rect fill="#e0e0e0" x="732" y="74.7" width="134.2" height="24.65" shape-rendering="crispEdges"/><rect fill="#e0e0e0" x="866.2" y="74.7" width="12.2" height="24.65" shape-rendering="crispEdges"/><rect fill="#e0e0e0" x="878.4" y="74.7" width="12.2" height="24.65" shape-rendering="crispEdges"/><rect fill="#e0e0e0" x="890.6" y="74.7" width="73.2" height="24.65" shape-rendering="crispEdges"/><rect fill="#e0e0e0" x="963.8" y="74.7" width="256.2" height="24.65" shape-rendering="crispEdges"/><rect fill="#d8d8d8" x="0" y="99.1" width="24.4" height="24.65" shape-rendering="crispEdges"/><rect fill="#d8d8d8" x="24.4" y="99.1" width="73.2" height="24.65" shape-rendering="crispEdges"/><rect fill="#d8d8d8" x="97.6" y="99.1" width="97.6" height="24.65" shape-rendering="crispEdges"/><rect fill="#d8d8d8" x="195.2" y="99.1" width="12.2" height="24.65" shape-rendering="crispEdges"/><rect fill="#e0e0e0" x="207.4" y="99.1" width="24.4" height="24.65" shape-rendering="crispEdges"/><rect fill="#e0e0e0" x="231.8" y="99.1" width="12.2" height="24.65" shape-rendering="crispEdges"/><rect fill="#e0e0e0" x="244" y="99.1" width="12.2" height="24.65" shape-rendering="crispEdges"/><rect fill="#e0e0e0" x="256.2" y="99.1" width="109.8" height="24.65" shape-rendering="crispEdges"/><rect fill="#e0e0e0" x="366" y="99.1" width="183" height="24.65" shape-rendering="crispEdges"/><rect fill="#e0e0e0" x="549" y="99.1" width="12.2" height="24.65" shape-rendering="crispEdges"/><rect fill="#e0e0e0" x="561.2" y="99.1" width="12.2" height="24.65" shape-rendering="crispEdges"/><rect fill="#d8c2c8" x="573.4" y="99.1" width="170.8" height="24.65" shape-rendering="crispEdges"/><rect fill="#d8c2c8" x="744.2" y="99.1" width="97.6" height="24.65" shape-rendering="crispEdges"/><rect fill="#7994a9" x="841.8" y="99.1" width="12.2" height="24.65" shape-rendering="crispEdges"/><rect fill="#e0e0e0" x="854" y="99.1" width="12.2" height="24.65" shape-rendering="crispEdges"/><rect fill="#e0e0e0" x="866.2" y="99.1" width="12.2" height="24.65" shape-rendering="crispEdges"/><rect fill="#e0e0e0" x="878.4" y="99.1" width="12.2" height="24.65" shape-rendering="crispEdges"/><rect fill="#e0e0e0" x="890.6" y="99.1" width="85.4" height="24.65" shape-rendering="crispEdges"/><rect fill="#e0e0e0" x="976" y="99.1" width="244" height="24.65" shape-rendering="crispEdges"/><rect fill="#d8d8d8" x="0" y="123.5" width="24.4" height="24.65" shape-rendering="crispEdges"/><rect fill="#d8d8d8" x="24.4" y="123.5" width="36.6" height="24.65" shape-rendering="crispEdges"/><rect fill="#d8d8d8" x="61" y="123.5" width="134.2" height="24.65" shape-rendering="crispEdges"/><rect fill="#d8d8d8" x="195.2" y="123.5" width="12.2" height="24.65" shape-rendering="crispEdges"/><rect fill="#e0e0e0" x="207.4" y="123.5" width="24.4" height="24.65" shape-rendering="crispEdges"/><rect fill="#e0e0e0" x="231.8" y="123.5" width="12.2" height="24.65" shape-rendering="crispEdges"/><rect fill="#e0e0e0" x="244" y="123.5" width="12.2" height="24.65" shape-rendering="crispEdges"/><rect fill="#e0e0e0" x="256.2" y="123.5" width="122" height="24.65" shape-rendering="crispEdges"/><rect fill="#e0e0e0" x="378.2" y="123.5" width="170.8" height="24.65" shape-rendering="crispEdges"/><rect fill="#e0e0e0" x="549" y="123.5" width="12.2" height="24.65" shape-rendering="crispEdges"/><rect fill="#e0e0e0" x="561.2" y="123.5" width="12.2" height="24.65" shape-rendering="crispEdges"/><rect fill="#e0e0e0" x="573.4" y="123.5" width="170.8" height="24.65" shape-rendering="crispEdges"/><rect fill="#e0e0e0" x="744.2" y="123.5" width="97.6" height="24.65" shape-rendering="crispEdges"/><rect fill="#7994a9" x="841.8" y="123.5" width="12.2" height="24.65" shape-rendering="crispEdges"/><rect fill="#e0e0e0" x="854" y="123.5" width="12.2" height="24.65" shape-rendering="crispEdges"/><rect fill="#e0e0e0" x="866.2" y="123.5" width="12.2" height="24.65" shape-rendering="crispEdges"/><rect fill="#e0e0e0" x="878.4" y="123.5" width="12.2" height="24.65" shape-rendering="crispEdges"/><rect fill="#e0e0e0" x="890.6" y="123.5" width="280.6" height="24.65" shape-rendering="crispEdges"/><rect fill="#e0e0e0" x="1171.2" y="123.5" width="48.8" height="24.65" shape-rendering="crispEdges"/><rect fill="#d8d8d8" x="0" y="147.9" width="24.4" height="24.65" shape-rendering="crispEdges"/><rect fill="#d8d8d8" x="24.4" y="147.9" width="61" height="24.65" shape-rendering="crispEdges"/><rect fill="#d8d8d8" x="85.4" y="147.9" width="109.8" height="24.65" shape-rendering="crispEdges"/><rect fill="#d8d8d8" x="195.2" y="147.9" width="12.2" height="24.65" shape-rendering="crispEdges"/><rect fill="#e0e0e0" x="207.4" y="147.9" width="24.4" height="24.65" shape-rendering="crispEdges"/><rect fill="#e0e0e0" x="231.8" y="147.9" width="12.2" height="24.65" shape-rendering="crispEdges"/><rect fill="#e0e0e0" x="244" y="147.9" width="12.2" height="24.65" shape-rendering="crispEdges"/><rect fill="#e0e0e0" x="256.2" y="147.9" width="158.6" height="24.65" shape-rendering="crispEdges"/><rect fill="#e0e0e0" x="414.8" y="147.9" width="134.2" height="24.65" shape-rendering="crispEdges"/><rect fill="#e0e0e0" x="549" y="147.9" width="12.2" height="24.65" shape-rendering="crispEdges"/><rect fill="#e0e0e0" x="561.2" y="147.9" width="12.2" height="24.65" shape-rendering="crispEdges"/><rect fill="#e0e0e0" x="573.4" y="147.9" width="170.8" height="24.65" shape-rendering="crispEdges"/><rect fill="#e0e0e0" x="744.2" y="147.9" width="97.6" height="24.65" shape-rendering="crispEdges"/><rect fill="#7994a9" x="841.8" y="147.9" width="12.2" height="24.65" shape-rendering="crispEdges"/><rect fill="#e0e0e0" x="854" y="147.9" width="12.2" height="24.65" shape-rendering="crispEdges"/><rect fill="#e0e0e0" x="866.2" y="147.9" width="12.2" height="24.65" shape-rendering="crispEdges"/><rect fill="#e0e0e0" x="878.4" y="147.9" width="341.6" height="24.65" shape-rendering="crispEdges"/><rect fill="#d8d8d8" x="0" y="172.3" width="195.2" height="24.65" shape-rendering="crispEdges"/><rect fill="#d8d8d8" x="195.2" y="172.3" width="12.2" height="24.65" shape-rendering="crispEdges"/><rect fill="#e0e0e0" x="207.4" y="172.3" width="24.4" height="24.65" shape-rendering="crispEdges"/><rect fill="#e0e0e0" x="231.8" y="172.3" width="12.2" height="24.65" shape-rendering="crispEdges"/><rect fill="#e0e0e0" x="244" y="172.3" width="12.2" height="24.65" shape-rendering="crispEdges"/><rect fill="#e0e0e0" x="256.2" y="172.3" width="183" height="24.65" shape-rendering="crispEdges"/><rect fill="#e0e0e0" x="439.2" y="172.3" width="109.8" height="24.65" shape-rendering="crispEdges"/><rect fill="#e0e0e0" x="549" y="172.3" width="12.2" height="24.65" shape-rendering="crispEdges"/><rect fill="#e0e0e0" x="561.2" y="172.3" width="12.2" height="24.65" shape-rendering="crispEdges"/><rect fill="#e0e0e0" x="573.4" y="172.3" width="170.8" height="24.65" shape-rendering="crispEdges"/><rect fill="#e0e0e0" x="744.2" y="172.3" width="97.6" height="24.65" shape-rendering="crispEdges"/><rect fill="#cacaca" x="841.8" y="172.3" width="12.2" height="24.65" shape-rendering="crispEdges"/><rect fill="#e0e0e0" x="854" y="172.3" width="12.2" height="24.65" shape-rendering="crispEdges"/><rect fill="#e0e0e0" x="866.2" y="172.3" width="12.2" height="24.65" shape-rendering="crispEdges"/><rect fill="#e0e0e0" x="878.4" y="172.3" width="341.6" height="24.65" shape-rendering="crispEdges"/><rect fill="#d8d8d8" x="0" y="196.7" width="195.2" height="24.65" shape-rendering="crispEdges"/><rect fill="#d8d8d8" x="195.2" y="196.7" width="12.2" height="24.65" shape-rendering="crispEdges"/><rect fill="#e0e0e0" x="207.4" y="196.7" width="1012.6" height="24.65" shape-rendering="crispEdges"/><rect fill="#d8d8d8" x="0" y="221.1" width="195.2" height="24.65" shape-rendering="crispEdges"/><rect fill="#d8d8d8" x="195.2" y="221.1" width="12.2" height="24.65" shape-rendering="crispEdges"/><rect fill="#e0e0e0" x="207.4" y="221.1" width="24.4" height="24.65" shape-rendering="crispEdges"/><rect fill="#e0e0e0" x="231.8" y="221.1" width="183" height="24.65" shape-rendering="crispEdges"/><rect fill="#e0e0e0" x="414.8" y="221.1" width="805.2" height="24.65" shape-rendering="crispEdges"/><rect fill="#d8d8d8" x="0" y="245.5" width="195.2" height="24.65" shape-rendering="crispEdges"/><rect fill="#d8d8d8" x="195.2" y="245.5" width="12.2" height="24.65" shape-rendering="crispEdges"/><rect fill="#e0e0e0" x="207.4" y="245.5" width="1012.6" height="24.65" shape-rendering="crispEdges"/><rect fill="#d8d8d8" x="0" y="269.9" width="195.2" height="24.65" shape-rendering="crispEdges"/><rect fill="#d8d8d8" x="195.2" y="269.9" width="12.2" height="24.65" shape-rendering="crispEdges"/><rect fill="#e0e0e0" x="207.4" y="269.9" width="24.4" height="24.65" shape-rendering="crispEdges"/><rect fill="#e0e0e0" x="231.8" y="269.9" width="134.2" height="24.65" shape-rendering="crispEdges"/><rect fill="#e0e0e0" x="366" y="269.9" width="109.8" height="24.65" shape-rendering="crispEdges"/><rect fill="#e0e0e0" x="475.8" y="269.9" width="524.6" height="24.65" shape-rendering="crispEdges"/><rect fill="#e0e0e0" x="1000.4" y="269.9" width="219.6" height="24.65" shape-rendering="crispEdges"/><rect fill="#d8d8d8" x="0" y="294.3" width="195.2" height="24.65" shape-rendering="crispEdges"/><rect fill="#d8d8d8" x="195.2" y="294.3" width="12.2" height="24.65" shape-rendering="crispEdges"/><rect fill="#e0e0e0" x="207.4" y="294.3" width="24.4" height="24.65" shape-rendering="crispEdges"/><rect fill="#e0e0e0" x="231.8" y="294.3" width="134.2" height="24.65" shape-rendering="crispEdges"/><rect fill="#e0e0e0" x="366" y="294.3" width="109.8" height="24.65" shape-rendering="crispEdges"/><rect fill="#e0e0e0" x="475.8" y="294.3" width="524.6" height="24.65" shape-rendering="crispEdges"/><rect fill="#e0e0e0" x="1000.4" y="294.3" width="219.6" height="24.65" shape-rendering="crispEdges"/><rect fill="#d8d8d8" x="0" y="318.7" width="195.2" height="24.65" shape-rendering="crispEdges"/><rect fill="#d8d8d8" x="195.2" y="318.7" width="12.2" height="24.65" shape-rendering="crispEdges"/><rect fill="#e0e0e0" x="207.4" y="318.7" width="24.4" height="24.65" shape-rendering="crispEdges"/><rect fill="#e0e0e0" x="231.8" y="318.7" width="134.2" height="24.65" shape-rendering="crispEdges"/><rect fill="#e0e0e0" x="366" y="318.7" width="109.8" height="24.65" shape-rendering="crispEdges"/><rect fill="#e0e0e0" x="475.8" y="318.7" width="524.6" height="24.65" shape-rendering="crispEdges"/><rect fill="#e0e0e0" x="1000.4" y="318.7" width="219.6" height="24.65" shape-rendering="crispEdges"/><rect fill="#d8d8d8" x="0" y="343.1" width="195.2" height="24.65" shape-rendering="crispEdges"/><rect fill="#d8d8d8" x="195.2" y="343.1" width="12.2" height="24.65" shape-rendering="crispEdges"/><rect fill="#e0e0e0" x="207.4" y="343.1" width="24.4" height="24.65" shape-rendering="crispEdges"/><rect fill="#e0e0e0" x="231.8" y="343.1" width="134.2" height="24.65" shape-rendering="crispEdges"/><rect fill="#e0e0e0" x="366" y="343.1" width="109.8" height="24.65" shape-rendering="crispEdges"/><rect fill="#e0e0e0" x="475.8" y="343.1" width="524.6" height="24.65" shape-rendering="crispEdges"/><rect fill="#e0e0e0" x="1000.4" y="343.1" width="219.6" height="24.65" shape-rendering="crispEdges"/><rect fill="#d8d8d8" x="0" y="367.5" width="195.2" height="24.65" shape-rendering="crispEdges"/><rect fill="#d8d8d8" x="195.2" y="367.5" width="12.2" height="24.65" shape-rendering="crispEdges"/><rect fill="#e0e0e0" x="207.4" y="367.5" width="24.4" height="24.65" shape-rendering="crispEdges"/><rect fill="#e0e0e0" x="231.8" y="367.5" width="134.2" height="24.65" shape-rendering="crispEdges"/><rect fill="#e0e0e0" x="366" y="367.5" width="109.8" height="24.65" shape-rendering="crispEdges"/><rect fill="#e0e0e0" x="475.8" y="367.5" width="524.6" height="24.65" shape-rendering="crispEdges"/><rect fill="#e0e0e0" x="1000.4" y="367.5" width="219.6" height="24.65" shape-rendering="crispEdges"/><rect fill="#d8d8d8" x="0" y="391.9" width="195.2" height="24.65" shape-rendering="crispEdges"/><rect fill="#d8d8d8" x="195.2" y="391.9" width="12.2" height="24.65" shape-rendering="crispEdges"/><rect fill="#e0e0e0" x="207.4" y="391.9" width="24.4" height="24.65" shape-rendering="crispEdges"/><rect fill="#e0e0e0" x="231.8" y="391.9" width="134.2" height="24.65" shape-rendering="crispEdges"/><rect fill="#e0e0e0" x="366" y="391.9" width="109.8" height="24.65" shape-rendering="crispEdges"/><rect fill="#e0e0e0" x="475.8" y="391.9" width="524.6" height="24.65" shape-rendering="crispEdges"/><rect fill="#e0e0e0" x="1000.4" y="391.9" width="219.6" height="24.65" shape-rendering="crispEdges"/><rect fill="#d8d8d8" x="0" y="416.3" width="195.2" height="24.65" shape-rendering="crispEdges"/><rect fill="#d8d8d8" x="195.2" y="416.3" width="12.2" height="24.65" shape-rendering="crispEdges"/><rect fill="#e0e0e0" x="207.4" y="416.3" width="24.4" height="24.65" shape-rendering="crispEdges"/><rect fill="#e0e0e0" x="231.8" y="416.3" width="134.2" height="24.65" shape-rendering="crispEdges"/><rect fill="#e0e0e0" x="366" y="416.3" width="109.8" height="24.65" shape-rendering="crispEdges"/><rect fill="#e0e0e0" x="475.8" y="416.3" width="524.6" height="24.65" shape-rendering="crispEdges"/><rect fill="#e0e0e0" x="1000.4" y="416.3" width="219.6" height="24.65" shape-rendering="crispEdges"/><rect fill="#d8d8d8" x="0" y="440.7" width="195.2" height="24.65" shape-rendering="crispEdges"/><rect fill="#d8d8d8" x="195.2" y="440.7" width="12.2" height="24.65" shape-rendering="crispEdges"/><rect fill="#e0e0e0" x="207.4" y="440.7" width="24.4" height="24.65" shape-rendering="crispEdges"/><rect fill="#e0e0e0" x="231.8" y="440.7" width="134.2" height="24.65" shape-rendering="crispEdges"/><rect fill="#e0e0e0" x="366" y="440.7" width="109.8" height="24.65" shape-rendering="crispEdges"/><rect fill="#e0e0e0" x="475.8" y="440.7" width="524.6" height="24.65" shape-rendering="crispEdges"/><rect fill="#e0e0e0" x="1000.4" y="440.7" width="219.6" height="24.65" shape-rendering="crispEdges"/><rect fill="#d8d8d8" x="0" y="465.1" width="195.2" height="24.65" shape-rendering="crispEdges"/><rect fill="#d8d8d8" x="195.2" y="465.1" width="12.2" height="24.65" shape-rendering="crispEdges"/><rect fill="#e0e0e0" x="207.4" y="465.1" width="24.4" height="24.65" shape-rendering="crispEdges"/><rect fill="#e0e0e0" x="231.8" y="465.1" width="963.8" height="24.65" shape-rendering="crispEdges"/><rect fill="#e0e0e0" x="1195.6" y="465.1" width="24.4" height="24.65" shape-rendering="crispEdges"/><rect fill="#d8d8d8" x="0" y="489.5" width="195.2" height="24.65" shape-rendering="crispEdges"/><rect fill="#d8d8d8" x="195.2" y="489.5" width="12.2" height="24.65" shape-rendering="crispEdges"/><rect fill="#e0e0e0" x="207.4" y="489.5" width="24.4" height="24.65" shape-rendering="crispEdges"/><rect fill="#e0e0e0" x="231.8" y="489.5" width="963.8" height="24.65" shape-rendering="crispEdges"/><rect fill="#e0e0e0" x="1195.6" y="489.5" width="24.4" height="24.65" shape-rendering="crispEdges"/><rect fill="#d8d8d8" x="0" y="513.9" width="195.2" height="24.65" shape-rendering="crispEdges"/><rect fill="#d8d8d8" x="195.2" y="513.9" width="12.2" height="24.65" shape-rendering="crispEdges"/><rect fill="#e0e0e0" x="207.4" y="513.9" width="24.4" height="24.65" shape-rendering="crispEdges"/><rect fill="#e0e0e0" x="231.8" y="513.9" width="963.8" height="24.65" shape-rendering="crispEdges"/><rect fill="#e0e0e0" x="1195.6" y="513.9" width="24.4" height="24.65" shape-rendering="crispEdges"/><rect fill="#d8d8d8" x="0" y="538.3" width="195.2" height="24.65" shape-rendering="crispEdges"/><rect fill="#d8d8d8" x="195.2" y="538.3" width="12.2" height="24.65" shape-rendering="crispEdges"/><rect fill="#e0e0e0" x="207.4" y="538.3" width="24.4" height="24.65" shape-rendering="crispEdges"/><rect fill="#e0e0e0" x="231.8" y="538.3" width="963.8" height="24.65" shape-rendering="crispEdges"/><rect fill="#e0e0e0" x="1195.6" y="538.3" width="24.4" height="24.65" shape-rendering="crispEdges"/><rect fill="#d8d8d8" x="0" y="562.7" width="195.2" height="24.65" shape-rendering="crispEdges"/><rect fill="#d8d8d8" x="195.2" y="562.7" width="12.2" height="24.65" shape-rendering="crispEdges"/><rect fill="#e0e0e0" x="207.4" y="562.7" width="24.4" height="24.65" shape-rendering="crispEdges"/><rect fill="#e0e0e0" x="231.8" y="562.7" width="963.8" height="24.65" shape-rendering="crispEdges"/><rect fill="#e0e0e0" x="1195.6" y="562.7" width="24.4" height="24.65" shape-rendering="crispEdges"/><rect fill="#d8d8d8" x="0" y="587.1" width="195.2" height="24.65" shape-rendering="crispEdges"/><rect fill="#d8d8d8" x="195.2" y="587.1" width="12.2" height="24.65" shape-rendering="crispEdges"/><rect fill="#e0e0e0" x="207.4" y="587.1" width="24.4" height="24.65" shape-rendering="crispEdges"/><rect fill="#e0e0e0" x="231.8" y="587.1" width="963.8" height="24.65" shape-rendering="crispEdges"/><rect fill="#e0e0e0" x="1195.6" y="587.1" width="24.4" height="24.65" shape-rendering="crispEdges"/><rect fill="#d8d8d8" x="0" y="611.5" width="195.2" height="24.65" shape-rendering="crispEdges"/><rect fill="#d8d8d8" x="195.2" y="611.5" width="12.2" height="24.65" shape-rendering="crispEdges"/><rect fill="#e0e0e0" x="207.4" y="611.5" width="24.4" height="24.65" shape-rendering="crispEdges"/><rect fill="#e0e0e0" x="231.8" y="611.5" width="963.8" height="24.65" shape-rendering="crispEdges"/><rect fill="#e0e0e0" x="1195.6" y="611.5" width="24.4" height="24.65" shape-rendering="crispEdges"/><rect fill="#d8d8d8" x="0" y="635.9" width="195.2" height="24.65" shape-rendering="crispEdges"/><rect fill="#d8d8d8" x="195.2" y="635.9" width="12.2" height="24.65" shape-rendering="crispEdges"/><rect fill="#e0e0e0" x="207.4" y="635.9" width="24.4" height="24.65" shape-rendering="crispEdges"/><rect fill="#e0e0e0" x="231.8" y="635.9" width="963.8" height="24.65" shape-rendering="crispEdges"/><rect fill="#e0e0e0" x="1195.6" y="635.9" width="24.4" height="24.65" shape-rendering="crispEdges"/><rect fill="#d8d8d8" x="0" y="660.3" width="195.2" height="24.65" shape-rendering="crispEdges"/><rect fill="#d8d8d8" x="195.2" y="660.3" width="12.2" height="24.65" shape-rendering="crispEdges"/><rect fill="#e0e0e0" x="207.4" y="660.3" width="24.4" height="24.65" shape-rendering="crispEdges"/><rect fill="#e0e0e0" x="231.8" y="660.3" width="963.8" height="24.65" shape-rendering="crispEdges"/><rect fill="#e0e0e0" x="1195.6" y="660.3" width="24.4" height="24.65" shape-rendering="crispEdges"/><rect fill="#d8d8d8" x="0" y="684.7" width="195.2" height="24.65" shape-rendering="crispEdges"/><rect fill="#d8d8d8" x="195.2" y="684.7" width="12.2" height="24.65" shape-rendering="crispEdges"/><rect fill="#e0e0e0" x="207.4" y="684.7" width="24.4" height="24.65" shape-rendering="crispEdges"/><rect fill="#e0e0e0" x="231.8" y="684.7" width="963.8" height="24.65" shape-rendering="crispEdges"/><rect fill="#e0e0e0" x="1195.6" y="684.7" width="24.4" height="24.65" shape-rendering="crispEdges"/><rect fill="#d8d8d8" x="0" y="709.1" width="195.2" height="24.65" shape-rendering="crispEdges"/><rect fill="#d8d8d8" x="195.2" y="709.1" width="12.2" height="24.65" shape-rendering="crispEdges"/><rect fill="#e0e0e0" x="207.4" y="709.1" width="24.4" height="24.65" shape-rendering="crispEdges"/><rect fill="#e0e0e0" x="231.8" y="709.1" width="963.8" height="24.65" shape-rendering="crispEdges"/><rect fill="#e0e0e0" x="1195.6" y="709.1" width="24.4" height="24.65" shape-rendering="crispEdges"/><rect fill="#d8d8d8" x="0" y="733.5" width="195.2" height="24.65" shape-rendering="crispEdges"/><rect fill="#d8d8d8" x="195.2" y="733.5" width="12.2" height="24.65" shape-rendering="crispEdges"/><rect fill="#e0e0e0" x="207.4" y="733.5" width="24.4" height="24.65" shape-rendering="crispEdges"/><rect fill="#e0e0e0" x="231.8" y="733.5" width="963.8" height="24.65" shape-rendering="crispEdges"/><rect fill="#e0e0e0" x="1195.6" y="733.5" width="24.4" height="24.65" shape-rendering="crispEdges"/><rect fill="#d8d8d8" x="0" y="757.9" width="195.2" height="24.65" shape-rendering="crispEdges"/><rect fill="#d8d8d8" x="195.2" y="757.9" width="12.2" height="24.65" shape-rendering="crispEdges"/><rect fill="#e0e0e0" x="207.4" y="757.9" width="1012.6" height="24.65" shape-rendering="crispEdges"/>
    <g class="terminal-matrix">
    <text class="terminal-r2" x="195.2" y="20" textLength="12.2" clip-path="url(#terminal-line-0)">│</text><text class="terminal-r1" x="1220" y="20" textLength="12.2" clip-path="url(#terminal-line-0)">
</text><text class="terminal-r3" x="0" y="44.4" textLength="24.4" clip-path="url(#terminal-line-1)">⌂&#160;</text><text class="terminal-r3" x="24.4" y="44.4" textLength="48.8" clip-path="url(#terminal-line-1)">Home</text><text class="terminal-r2" x="195.2" y="44.4" textLength="12.2" clip-path="url(#terminal-line-1)">│</text><text class="terminal-r3" x="231.8" y="44.4" textLength="48.8" clip-path="url(#terminal-line-1)">Home</text><text class="terminal-r1" x="1220" y="44.4" textLength="12.2" clip-path="url(#terminal-line-1)">
</text><text class="terminal-r4" x="0" y="68.8" textLength="24.4" clip-path="url(#terminal-line-2)">◆&#160;</text><text class="terminal-r5" x="24.4" y="68.8" textLength="48.8" clip-path="url(#terminal-line-2)">Chat</text><text class="terminal-r2" x="195.2" y="68.8" textLength="12.2" clip-path="url(#terminal-line-2)">│</text><text class="terminal-r1" x="1220" y="68.8" textLength="12.2" clip-path="url(#terminal-line-2)">
</text><text class="terminal-r4" x="0" y="93.2" textLength="24.4" clip-path="url(#terminal-line-3)">▦&#160;</text><text class="terminal-r5" x="24.4" y="93.2" textLength="73.2" clip-path="url(#terminal-line-3)">Office</text><text class="terminal-r2" x="195.2" y="93.2" textLength="12.2" clip-path="url(#terminal-line-3)">│</text><text class="terminal-r6" x="231.8" y="93.2" textLength="12.2" clip-path="url(#terminal-line-3)">│</text><text class="terminal-r7" x="256.2" y="93.2" textLength="97.6" clip-path="url(#terminal-line-3)">OVERVIEW</text><text class="terminal-r6" x="549" y="93.2" textLength="12.2" clip-path="url(#terminal-line-3)">│</text><text class="terminal-r7" x="573.4" y="93.2" textLength="158.6" clip-path="url(#terminal-line-3)">ACTION&#160;NEEDED</text><text class="terminal-r6" x="866.2" y="93.2" textLength="12.2" clip-path="url(#terminal-line-3)">│</text><text class="terminal-r7" x="890.6" y="93.2" textLength="73.2" clip-path="url(#terminal-line-3)">SYSTEM</text><text class="terminal-r1" x="1220" y="93.2" textLength="12.2" clip-path="url(#terminal-line-3)">
</text><text class="terminal-r4" x="0" y="117.6" textLength="24.4" clip-path="url(#terminal-line-4)">◎&#160;</text><text class="terminal-r5" x="24.4" y="117.6" textLength="73.2" clip-path="url(#terminal-line-4)">Agents</text><text class="terminal-r2" x="195.2" y="117.6" textLength="12.2" clip-path="url(#terminal-line-4)">│</text><text class="terminal-r6" x="231.8" y="117.6" textLength="12.2" clip-path="url(#terminal-line-4)">│</text><text class="terminal-r3" x="256.2" y="117.6" textLength="109.8" clip-path="url(#terminal-line-4)">10&#160;agents</text><text class="terminal-r6" x="549" y="117.6" textLength="12.2" clip-path="url(#terminal-line-4)">│</text><text class="terminal-r3" x="573.4" y="117.6" textLength="170.8" clip-path="url(#terminal-line-4)">!&#160;1&#160;Attention&#160;</text><text class="terminal-r3" x="744.2" y="117.6" textLength="97.6" clip-path="url(#terminal-line-4)">Explore…</text><text class="terminal-r6" x="866.2" y="117.6" textLength="12.2" clip-path="url(#terminal-line-4)">│</text><text class="terminal-r3" x="890.6" y="117.6" textLength="85.4" clip-path="url(#terminal-line-4)">✓&#160;Ready</text><text class="terminal-r1" x="1220" y="117.6" textLength="12.2" clip-path="url(#terminal-line-4)">
</text><text class="terminal-r4" x="0" y="142" textLength="24.4" clip-path="url(#terminal-line-5)">◇&#160;</text><text class="terminal-r5" x="24.4" y="142" textLength="36.6" clip-path="url(#terminal-line-5)">MCP</text><text class="terminal-r2" x="195.2" y="142" textLength="12.2" clip-path="url(#terminal-line-5)">│</text><text class="terminal-r6" x="231.8" y="142" textLength="12.2" clip-path="url(#terminal-line-5)">│</text><text class="terminal-r3" x="256.2" y="142" textLength="122" clip-path="url(#terminal-line-5)">●&#160;8&#160;active</text><text class="terminal-r6" x="549" y="142" textLength="12.2" clip-path="url(#terminal-line-5)">│</text><text class="terminal-r3" x="573.4" y="142" textLength="170.8" clip-path="url(#terminal-line-5)">!&#160;2&#160;Attention&#160;</text><text class="terminal-r3" x="744.2" y="142" textLength="97.6" clip-path="url(#terminal-line-5)">Explore…</text><text class="terminal-r6" x="866.2" y="142" textLength="12.2" clip-path="url(#terminal-line-5)">│</text><text class="terminal-r9" x="890.6" y="142" textLength="280.6" clip-path="url(#terminal-line-5)">3&#160;MCP&#160;sources&#160;connected</text><text class="terminal-r1" x="1220" y="142" textLength="12.2" clip-path="url(#terminal-line-5)">
</text><text class="terminal-r4" x="0" y="166.4" textLength="24.4" clip-path="url(#terminal-line-6)">▥&#160;</text><text class="terminal-r5" x="24.4" y="166.4" textLength="61" clip-path="url(#terminal-line-6)">Usage</text><text class="terminal-r2" x="195.2" y="166.4" textLength="12.2" clip-path="url(#terminal-line-6)">│</text><text class="terminal-r6" x="231.8" y="166.4" textLength="12.2" clip-path="url(#terminal-line-6)">│</text><text class="terminal-r3" x="256.2" y="166.4" textLength="158.6" clip-path="url(#terminal-line-6)">!&#160;7&#160;attention</text><text class="terminal-r6" x="549" y="166.4" textLength="12.2" clip-path="url(#terminal-line-6)">│</text><text class="terminal-r3" x="573.4" y="166.4" textLength="170.8" clip-path="url(#terminal-line-6)">!&#160;3&#160;Attention&#160;</text><text class="terminal-r3" x="744.2" y="166.4" textLength="97.6" clip-path="url(#terminal-line-6)">Explore…</text><text class="terminal-r10" x="841.8" y="166.4" textLength="12.2" clip-path="url(#terminal-line-6)">▅</text><text class="terminal-r6" x="866.2" y="166.4" textLength="12.2" clip-path="url(#terminal-line-6)">│</text><text class="terminal-r1" x="1220" y="166.4" textLength="12.2" clip-path="url(#terminal-line-6)">
</text><text class="terminal-r2" x="195.2" y="190.8" textLength="12.2" clip-path="url(#terminal-line-7)">│</text><text class="terminal-r6" x="231.8" y="190.8" textLength="12.2" clip-path="url(#terminal-line-7)">│</text><text class="terminal-r3" x="256.2" y="190.8" textLength="183" clip-path="url(#terminal-line-7)">×&#160;1&#160;recent&#160;fail</text><text class="terminal-r6" x="549" y="190.8" textLength="12.2" clip-path="url(#terminal-line-7)">│</text><text class="terminal-r3" x="573.4" y="190.8" textLength="170.8" clip-path="url(#terminal-line-7)">!&#160;4&#160;Attention&#160;</text><text class="terminal-r3" x="744.2" y="190.8" textLength="97.6" clip-path="url(#terminal-line-7)">Explore…</text><text class="terminal-r6" x="866.2" y="190.8" textLength="12.2" clip-path="url(#terminal-line-7)">│</text><text class="terminal-r1" x="1220" y="190.8" textLength="12.2" clip-path="url(#terminal-line-7)">
</text><text class="terminal-r2" x="195.2" y="215.2" textLength="12.2" clip-path="url(#terminal-line-8)">│</text><text class="terminal-r1" x="1220" y="215.2" textLength="12.2" clip-path="url(#terminal-line-8)">
</text><text class="terminal-r2" x="195.2" y="239.6" textLength="12.2" clip-path="url(#terminal-line-9)">│</text><text class="terminal-r7" x="231.8" y="239.6" textLength="183" clip-path="url(#terminal-line-9)">RECENT&#160;ACTIVITY</text><text class="terminal-r1" x="1220" y="239.6" textLength="12.2" clip-path="url(#terminal-line-9)">
</text><text class="terminal-r2" x="195.2" y="264" textLength="12.2" clip-path="url(#terminal-line-10)">│</text><text class="terminal-r1" x="1220" y="264" textLength="12.2" clip-path="url(#terminal-line-10)">
</text><text class="terminal-r2" x="195.2" y="288.4" textLength="12.2" clip-path="url(#terminal-line-11)">│</text><text class="terminal-r3" x="231.8" y="288.4" textLength="134.2" clip-path="url(#terminal-line-11)">✓&#160;finished&#160;</text><text class="terminal-r3" x="366" y="288.4" textLength="109.8" clip-path="url(#terminal-line-11)">Explore&#160;9</text><text class="terminal-r12" x="475.8" y="288.4" textLength="524.6" clip-path="url(#terminal-line-11)">&#160;&#160;Waiting&#160;for&#160;approval&#160;on&#160;responsive&#160;item&#160;9</text><text class="terminal-r1" x="1220" y="288.4" textLength="12.2" clip-path="url(#terminal-line-11)">
</text><text class="terminal-r2" x="195.2" y="312.8" textLength="12.2" clip-path="url(#terminal-line-12)">│</text><text class="terminal-r3" x="231.8" y="312.8" textLength="134.2" clip-path="url(#terminal-line-12)">●&#160;working&#160;&#160;</text><text class="terminal-r3" x="366" y="312.8" textLength="109.8" clip-path="url(#terminal-line-12)">Explore&#160;8</text><text class="terminal-r12" x="475.8" y="312.8" textLength="524.6" clip-path="url(#terminal-line-12)">&#160;&#160;Waiting&#160;for&#160;approval&#160;on&#160;responsive&#160;item&#160;8</text><text class="terminal-r1" x="1220" y="312.8" textLength="12.2" clip-path="url(#terminal-line-12)">
</text><text class="terminal-r2" x="195.2" y="337.2" textLength="12.2" clip-path="url(#terminal-line-13)">│</text><text class="terminal-r3" x="231.8" y="337.2" textLength="134.2" clip-path="url(#terminal-line-13)">×&#160;failed&#160;&#160;&#160;</text><text class="terminal-r3" x="366" y="337.2" textLength="109.8" clip-path="url(#terminal-line-13)">Explore&#160;7</text><text class="terminal-r12" x="475.8" y="337.2" textLength="524.6" clip-path="url(#terminal-line-13)">&#160;&#160;Waiting&#160;for&#160;approval&#160;on&#160;responsive&#160;item&#160;7</text><text class="terminal-r1" x="1220" y="337.2" textLength="12.2" clip-path="url(#terminal-line-13)">
</text><text class="terminal-r2" x="195.2" y="361.6" textLength="12.2" clip-path="url(#terminal-line-14)">│</text><text class="terminal-r3" x="231.8" y="361.6" textLength="134.2" clip-path="url(#terminal-line-14)">!&#160;attention</text><text class="terminal-r3" x="366" y="361.6" textLength="109.8" clip-path="url(#terminal-line-14)">Explore&#160;6</text><text class="terminal-r12" x="475.8" y="361.6" textLength="524.6" clip-path="url(#terminal-line-14)">&#160;&#160;Waiting&#160;for&#160;approval&#160;on&#160;responsive&#160;item&#160;6</text><text class="terminal-r1" x="1220" y="361.6" textLength="12.2" clip-path="url(#terminal-line-14)">
</text><text class="terminal-r2" x="195.2" y="386" textLength="12.2" clip-path="url(#terminal-line-15)">│</text><text class="terminal-r3" x="231.8" y="386" textLength="134.2" clip-path="url(#terminal-line-15)">!&#160;attention</text><text class="terminal-r3" x="366" y="386" textLength="109.8" clip-path="url(#terminal-line-15)">Explore&#160;5</text><text class="terminal-r12" x="475.8" y="386" textLength="524.6" clip-path="url(#terminal-line-15)">&#160;&#160;Waiting&#160;for&#160;approval&#160;on&#160;responsive&#160;item&#160;5</text><text class="terminal-r1" x="1220" y="386" textLength="12.2" clip-path="url(#terminal-line-15)">
</text><text class="terminal-r2" x="195.2" y="410.4" textLength="12.2" clip-path="url(#terminal-line-16)">│</text><text class="terminal-r3" x="231.8" y="410.4" textLength="134.2" clip-path="url(#terminal-line-16)">!&#160;attention</text><text class="terminal-r3" x="366" y="410.4" textLength="109.8" clip-path="url(#terminal-line-16)">Explore&#160;4</text><text class="terminal-r12" x="475.8" y="410.4" textLength="524.6" clip-path="url(#terminal-line-16)">&#160;&#160;Waiting&#160;for&#160;approval&#160;on&#160;responsive&#160;item&#160;4</text><text class="terminal-r1" x="1220" y="410.4" textLength="12.2" clip-path="url(#terminal-line-16)">
</text><text class="terminal-r2" x="195.2" y="434.8" textLength="12.2" clip-path="url(#terminal-line-17)">│</text><text class="terminal-r3" x="231.8" y="434.8" textLength="134.2" clip-path="url(#terminal-line-17)">!&#160;attention</text><text class="terminal-r3" x="366" y="434.8" textLength="109.8" clip-path="url(#terminal-line-17)">Explore&#160;3</text><text class="terminal-r12" x="475.8" y="434.8" textLength="524.6" clip-path="url(#terminal-line-17)">&#160;&#160;Waiting&#160;for&#160;approval&#160;on&#160;responsive&#160;item&#160;3</text><text class="terminal-r1" x="1220" y="434.8" textLength="12.2" clip-path="url(#terminal-line-17)">
</text><text class="terminal-r2" x="195.2" y="459.2" textLength="12.2" clip-path="url(#terminal-line-18)">│</text><text class="terminal-r3" x="231.8" y="459.2" textLength="134.2" clip-path="url(#terminal-line-18)">!&#160;attention</text><text class="terminal-r3" x="366" y="459.2" textLength="109.8" clip-path="url(#terminal-line-18)">Explore&#160;2</text><text class="terminal-r12" x="475.8" y="459.2" textLength="524.6" clip-path="url(#terminal-line-18)">&#160;&#160;Waiting&#160;for&#160;approval&#160;on&#160;responsive&#160;item&#160;2</text><text class="terminal-r1" x="1220" y="459.2" textLength="12.2" clip-path="url(#terminal-line-18)">
</text><text class="terminal-r2" x="195.2" y="483.6" textLength="12.2" clip-path="url(#terminal-line-19)">│</text><text class="terminal-r1" x="1220" y="483.6" textLength="12.2" clip-path="url(#terminal-line-19)">
</text><text class="terminal-r2" x="195.2" y="508" textLength="12.2" clip-path="url(#terminal-line-20)">│</text><text class="terminal-r1" x="1220" y="508" textLength="12.2" clip-path="url(#terminal-line-20)">
</text><text class="terminal-r2" x="195.2" y="532.4" textLength="12.2" clip-path="url(#terminal-line-21)">│</text><text class="terminal-r1" x="1220" y="532.4" textLength="12.2" clip-path="url(#terminal-line-21)">
</text><text class="terminal-r2" x="195.2" y="556.8" textLength="12.2" clip-path="url(#terminal-line-22)">│</text><text class="terminal-r1" x="1220" y="556.8" textLength="12.2" clip-path="url(#terminal-line-22)">
</text><text class="terminal-r2" x="195.2" y="581.2" textLength="12.2" clip-path="url(#terminal-line-23)">│</text><text class="terminal-r1" x="1220" y="581.2" textLength="12.2" clip-path="url(#terminal-line-23)">
</text><text class="terminal-r2" x="195.2" y="605.6" textLength="12.2" clip-path="url(#terminal-line-24)">│</text><text class="terminal-r1" x="1220" y="605.6" textLength="12.2" clip-path="url(#terminal-line-24)">
</text><text class="terminal-r2" x="195.2" y="630" textLength="12.2" clip-path="url(#terminal-line-25)">│</text><text class="terminal-r1" x="1220" y="630" textLength="12.2" clip-path="url(#terminal-line-25)">
</text><text class="terminal-r2" x="195.2" y="654.4" textLength="12.2" clip-path="url(#terminal-line-26)">│</text><text class="terminal-r1" x="1220" y="654.4" textLength="12.2" clip-path="url(#terminal-line-26)">
</text><text class="terminal-r2" x="195.2" y="678.8" textLength="12.2" clip-path="url(#terminal-line-27)">│</text><text class="terminal-r1" x="1220" y="678.8" textLength="12.2" clip-path="url(#terminal-line-27)">
</text><text class="terminal-r2" x="195.2" y="703.2" textLength="12.2" clip-path="url(#terminal-line-28)">│</text><text class="terminal-r1" x="1220" y="703.2" textLength="12.2" clip-path="url(#terminal-line-28)">
</text><text class="terminal-r2" x="195.2" y="727.6" textLength="12.2" clip-path="url(#terminal-line-29)">│</text><text class="terminal-r1" x="1220" y="727.6" textLength="12.2" clip-path="url(#terminal-line-29)">
</text><text class="terminal-r2" x="195.2" y="752" textLength="12.2" clip-path="url(#terminal-line-30)">│</text><text class="terminal-r1" x="1220" y="752" textLength="12.2" clip-path="url(#terminal-line-30)">
</text><text class="terminal-r2" x="195.2" y="776.4" textLength="12.2" clip-path="url(#terminal-line-31)">│</text>
    </g>
    </g>
</svg>
